<mxfile host="app.diagrams.net" modified="2024-05-29T10:27:29.510Z" agent="Mozilla/5.0 (X11; Ubuntu; Linux x86_64; rv:125.0) Gecko/20100101 Firefox/125.0" version="24.4.9" etag="XjMHl7Dee1fY0XNeBIxL" type="github">
  <diagram name="Pagina-1" id="PVbaKrk9e-Q4n3qrLTkm">
    <mxGraphModel>
      <root>
        <mxCell id="0" />
        <mxCell id="1" parent="0" />
      </root>
    </mxGraphModel>
  </diagram>
</mxfile>
